<svg id="LOGO_PM" xmlns="http://www.w3.org/2000/svg" width="154.984" height="69.259" viewBox="0 0 154.984 69.259">
  <path id="Path_33" data-name="Path 33" d="M0,2.77H154.984v.891H0Z" transform="translate(0 0.521)" fill="#575756"/>
  <path id="Path_34" data-name="Path 34" d="M0,29.04H154.984v.891H0Z" transform="translate(0 5.459)" fill="#575756"/>
  <path id="Path_35" data-name="Path 35" d="M0,54.71H154.984V55.6H0Z" transform="translate(0 10.285)" fill="#575756"/>
  <circle id="Ellipse_21" data-name="Ellipse 21" cx="3.362" cy="3.362" r="3.362" transform="translate(101.953 0.451)" fill="#e74256"/>
  <path id="Path_36" data-name="Path 36" d="M89.253,7.627a3.813,3.813,0,1,1,3.813-3.813A3.813,3.813,0,0,1,89.253,7.627Zm0-6.736a2.922,2.922,0,1,0,2.922,2.922A2.922,2.922,0,0,0,89.253.891Z" transform="translate(16.061 0)" fill="#575756"/>
  <circle id="Ellipse_22" data-name="Ellipse 22" cx="3.362" cy="3.362" r="3.362" transform="translate(32.301 31.588)" fill="#e74256"/>
  <path id="Path_37" data-name="Path 37" d="M30.6,33.837a3.813,3.813,0,1,1,3.813-3.813A3.813,3.813,0,0,1,30.6,33.837Zm0-6.688a2.922,2.922,0,1,0,2.922,2.922A2.922,2.922,0,0,0,30.6,27.149Z" transform="translate(5.036 4.927)" fill="#575756"/>
  <circle id="Ellipse_23" data-name="Ellipse 23" cx="3.362" cy="3.362" r="3.362" transform="translate(74.13 62.084)" fill="#e74256"/>
  <g id="Group_39" data-name="Group 39" transform="translate(0.535 13.079)">
    <path id="Path_38" data-name="Path 38" d="M65.833,59.507a3.813,3.813,0,1,1,3.813-3.813A3.813,3.813,0,0,1,65.833,59.507Zm0-6.736a2.922,2.922,0,1,0,2.922,2.922,2.922,2.922,0,0,0-2.922-2.922Z" transform="translate(11.124 -3.326)" fill="#575756"/>
    <path id="Path_39" data-name="Path 39" d="M.45,22.085V11.12H5a2.851,2.851,0,0,1,1.307.3,3.433,3.433,0,0,1,1.022.784,3.742,3.742,0,0,1,.677,1.1,3.338,3.338,0,0,1,.226,1.236,3.742,3.742,0,0,1-.238,1.307,3.564,3.564,0,0,1-.653,1.1,3.255,3.255,0,0,1-1,.772,2.816,2.816,0,0,1-1.295.3H1.484v4.051Zm1.081-5H5.1a1.829,1.829,0,0,0,.76-.166,2.126,2.126,0,0,0,.677-.558,2.625,2.625,0,0,0,.511-.843,2.958,2.958,0,0,0,.154-.95,2.673,2.673,0,0,0-.653-1.758,2.186,2.186,0,0,0-.713-.535,1.984,1.984,0,0,0-.855-.19H1.531Z" transform="translate(-0.45 -10.989)" fill="#575756"/>
    <path id="Path_40" data-name="Path 40" d="M11.79,22.085V11.12h4.633a2.839,2.839,0,0,1,1.307.3,3.421,3.421,0,0,1,1.034.784,3.564,3.564,0,0,1,.677,1.1,3.445,3.445,0,0,1,.238,1.247,3.718,3.718,0,0,1-.178,1.188,3.564,3.564,0,0,1-.5.986,3.029,3.029,0,0,1-.76.737,2.685,2.685,0,0,1-1.01.4L19.916,22.1H18.728L16.15,18.046H12.871V22.1Zm1.081-5h3.564a1.83,1.83,0,0,0,.867-.214,2.079,2.079,0,0,0,.677-.558,2.72,2.72,0,0,0,.428-.808,2.863,2.863,0,0,0,.154-.939,2.673,2.673,0,0,0-.582-1.746,2.293,2.293,0,0,0-.713-.546,1.925,1.925,0,0,0-.855-.2h-3.54Z" transform="translate(1.682 -10.989)" fill="#575756"/>
    <path id="Path_41" data-name="Path 41" d="M30.9,21.135V22.1H23.53V11.12h7.223v.962H24.611v3.956h5.417v.879H24.611V21.1Z" transform="translate(3.889 -10.989)" fill="#575756"/>
    <path id="Path_42" data-name="Path 42" d="M41.064,13.2a3.315,3.315,0,0,0-1.188-.843,4.5,4.5,0,0,0-1.758-.321A3.314,3.314,0,0,0,36,12.578a1.83,1.83,0,0,0-.76,1.485,1.651,1.651,0,0,0,.178.808,1.544,1.544,0,0,0,.546.546,3.849,3.849,0,0,0,.95.4q.582.166,1.366.345a14.78,14.78,0,0,1,1.58.416,4.574,4.574,0,0,1,1.188.582,2.376,2.376,0,0,1,.76.843,2.614,2.614,0,0,1,.261,1.188,2.768,2.768,0,0,1-.3,1.307,2.614,2.614,0,0,1-.82.927,3.647,3.647,0,0,1-1.247.546,6.736,6.736,0,0,1-1.592.178,6.534,6.534,0,0,1-4.407-1.592l.546-.879a4.3,4.3,0,0,0,.7.582,5.168,5.168,0,0,0,.915.487,5.762,5.762,0,0,0,1.069.321,6.011,6.011,0,0,0,1.188.119,3.778,3.778,0,0,0,2.043-.475,1.58,1.58,0,0,0,.737-1.426,1.639,1.639,0,0,0-.214-.855,1.806,1.806,0,0,0-.63-.606,4.407,4.407,0,0,0-1.034-.44q-.618-.19-1.437-.368a15.488,15.488,0,0,1-1.509-.416,4.063,4.063,0,0,1-1.093-.546,2.115,2.115,0,0,1-.677-.784,2.53,2.53,0,0,1-.226-1.117,3.077,3.077,0,0,1,.285-1.354,2.649,2.649,0,0,1,.808-.986,3.837,3.837,0,0,1,1.188-.606,5.607,5.607,0,0,1,1.58-.2,5.382,5.382,0,0,1,1.948.333,5.275,5.275,0,0,1,1.556.939Z" transform="translate(5.802 -11.009)" fill="#575756"/>
    <path id="Path_43" data-name="Path 43" d="M53.006,21.135V22.1H45.64V11.12h7.223v.962H46.721v3.956h5.358v.879H46.721V21.1Z" transform="translate(8.045 -10.989)" fill="#575756"/>
    <path id="Path_44" data-name="Path 44" d="M57.891,13.128v8.957H56.81V11.12h.832L64.9,20.244v-9.1h1.081V22.1h-.939Z" transform="translate(10.145 -10.989)" fill="#575756"/>
    <path id="Path_45" data-name="Path 45" d="M78.058,12.082H74.15v10H73.068v-10H69.16V11.12h8.9Z" transform="translate(12.466 -10.989)" fill="#575756"/>
    <path id="Path_46" data-name="Path 46" d="M83.961,11.12h.915l4.55,10.965H88.238l-1.426-3.433H81.93l-1.4,3.433H79.34Zm2.661,6.688L84.4,12.391l-2.245,5.417Z" transform="translate(14.38 -10.989)" fill="#575756"/>
    <path id="Path_47" data-name="Path 47" d="M99.4,12.082H95.55v10H94.468v-10H90.56V11.12H99.4Z" transform="translate(16.489 -10.989)" fill="#575756"/>
    <path id="Path_48" data-name="Path 48" d="M102.67,22.085V11.12h1.081V22.085Z" transform="translate(18.766 -10.989)" fill="#575756"/>
    <path id="Path_49" data-name="Path 49" d="M113.672,22.168a4.645,4.645,0,0,1-2.091-.475,5.18,5.18,0,0,1-1.628-1.212,5.7,5.7,0,0,1-1.045-1.782,5.94,5.94,0,0,1-.368-2.055,5.7,5.7,0,0,1,.392-2.1,5.821,5.821,0,0,1,1.093-1.782,5.251,5.251,0,0,1,1.639-1.188,4.633,4.633,0,0,1,2.043-.451,4.514,4.514,0,0,1,2.091.487,5.275,5.275,0,0,1,1.6,1.2,5.94,5.94,0,0,1,1.045,1.782,5.809,5.809,0,0,1,.368,2.031,5.7,5.7,0,0,1-.392,2.1,5.8,5.8,0,0,1-1.022,1.758,5.263,5.263,0,0,1-1.628,1.188,4.633,4.633,0,0,1-2.1.5Zm-4.063-5.56a5.084,5.084,0,0,0,.3,1.723,4.68,4.68,0,0,0,.832,1.473,4.134,4.134,0,0,0,1.283,1.022,3.75,3.75,0,0,0,3.338-.024,4.11,4.11,0,0,0,1.283-1.045,4.858,4.858,0,0,0,.808-1.461,5.049,5.049,0,0,0,0-3.386,4.752,4.752,0,0,0-.843-1.461,4.146,4.146,0,0,0-1.283-1.01,3.775,3.775,0,0,0-3.326.012,4,4,0,0,0-1.283,1.045,4.859,4.859,0,0,0-.808,1.461,5.037,5.037,0,0,0-.285,1.651Z" transform="translate(19.869 -10.989)" fill="#575756"/>
    <path id="Path_50" data-name="Path 50" d="M123.241,13.128v8.957H122.16V11.12h.832l7.294,9.136V11.144h1.081V22.1h-.939Z" transform="translate(22.429 -10.989)" fill="#575756"/>
    <path id="Path_51" data-name="Path 51" d="M11.611,50.141V41.172L8.13,47.825H6.7L3.224,41.172v8.969H.61V36.61H3.449l3.992,7.674,4.027-7.674H14.26V50.141Z" transform="translate(-0.42 -6.197)" fill="#575756"/>
    <path id="Path_52" data-name="Path 52" d="M28.1,36.61h2.376l5.073,13.531h-2.7l-1.259-3.362H26.837l-1.188,3.362H22.94Zm3.017,8.316-1.865-5.3-1.936,5.3Z" transform="translate(3.778 -6.197)" fill="#575756"/>
    <path id="Path_53" data-name="Path 53" d="M53.558,38.915H49.234V50.141H46.692V38.915H42.32v-2.3H53.558Z" transform="translate(7.421 -6.197)" fill="#575756"/>
    <path id="Path_54" data-name="Path 54" d="M73.058,38.915H68.746V50.141h-2.6V38.915H61.82v-2.3H73.058Z" transform="translate(11.087 -6.197)" fill="#575756"/>
    <path id="Path_55" data-name="Path 55" d="M91.651,47.765v2.376H82.29V36.61h9.159v2.3H84.915V42.17h5.679V44.3H84.915V47.86Z" transform="translate(14.935 -6.197)" fill="#575756"/>
    <path id="Path_56" data-name="Path 56" d="M101.5,50.141V36.61h5.94a3.825,3.825,0,0,1,1.723.392,4.443,4.443,0,0,1,1.354,1.022,4.823,4.823,0,0,1,.891,1.449,4.336,4.336,0,0,1,.321,1.628,4.491,4.491,0,0,1-.653,2.376,3.766,3.766,0,0,1-1.782,1.544l3.124,5.12h-2.946l-2.756-4.526h-2.59v4.526Zm2.625-6.819h3.291a1.39,1.39,0,0,0,.677-.166,1.711,1.711,0,0,0,.546-.463A2.376,2.376,0,0,0,109,42a2.7,2.7,0,0,0,.131-.855,2.447,2.447,0,0,0-.154-.879,2.3,2.3,0,0,0-.4-.689,1.853,1.853,0,0,0-.594-.451,1.521,1.521,0,0,0-.677-.166h-3.172Z" transform="translate(18.546 -6.197)" fill="#575756"/>
    <path id="Path_57" data-name="Path 57" d="M129.935,40.175a3.233,3.233,0,0,0-.487-.356,5.94,5.94,0,0,0-.855-.451A7.423,7.423,0,0,0,127.5,39a4.751,4.751,0,0,0-1.188-.154,2.673,2.673,0,0,0-1.616.4,1.319,1.319,0,0,0-.535,1.117,1.188,1.188,0,0,0,.2.689,1.71,1.71,0,0,0,.582.487,4.752,4.752,0,0,0,.962.38l1.342.356a17.829,17.829,0,0,1,1.794.57,4.883,4.883,0,0,1,1.366.76,3.124,3.124,0,0,1,.867,1.093,3.564,3.564,0,0,1,.309,1.568,3.9,3.9,0,0,1-.4,1.853,3.422,3.422,0,0,1-1.1,1.188,4.752,4.752,0,0,1-1.592.689,8,8,0,0,1-1.889.214,10.169,10.169,0,0,1-3.006-.451,9.29,9.29,0,0,1-2.661-1.295l1.188-2.257a3.565,3.565,0,0,0,.618.451,9.5,9.5,0,0,0,1.057.546,8.317,8.317,0,0,0,1.354.463,6.046,6.046,0,0,0,1.521.19q2.174,0,2.162-1.39a1.188,1.188,0,0,0-.249-.737,2.126,2.126,0,0,0-.7-.535,6.725,6.725,0,0,0-1.1-.416l-1.449-.416a12.248,12.248,0,0,1-1.687-.582,4.384,4.384,0,0,1-1.188-.737,2.78,2.78,0,0,1-.713-.986,3.41,3.41,0,0,1-.238-1.342,4.182,4.182,0,0,1,.38-1.829,3.683,3.683,0,0,1,1.057-1.331,4.752,4.752,0,0,1,1.568-.808,6.5,6.5,0,0,1,1.925-.273,7.472,7.472,0,0,1,2.625.451,9.777,9.777,0,0,1,2.091,1.057Z" transform="translate(22.198 -6.221)" fill="#575756"/>
  </g>
</svg>
