<svg xmlns="http://www.w3.org/2000/svg" width="51.925" height="51.926" viewBox="0 0 51.925 51.926">
  <g id="Group_49" data-name="Group 49" transform="translate(-500 -10269)">
    <g id="Group_25" data-name="Group 25" transform="translate(134.085 10126.112)">
      <g id="Group_17" data-name="Group 17" transform="translate(365.915 142.888)">
        <circle id="Ellipse_6" data-name="Ellipse 6" cx="25.963" cy="25.963" r="25.963" fill="#e8354b"/>
      </g>
      <g id="Group_24" data-name="Group 24" transform="translate(376.219 153.433)">
        <g id="Group_18" data-name="Group 18" transform="translate(0 3.292)">
          <rect id="Rectangle_12" data-name="Rectangle 12" width="31.318" height="0.891" fill="#fff"/>
        </g>
        <g id="Group_19" data-name="Group 19" transform="translate(0 14.934)">
          <rect id="Rectangle_13" data-name="Rectangle 13" width="31.318" height="0.891" fill="#fff"/>
        </g>
        <g id="Group_20" data-name="Group 20" transform="translate(0 26.577)">
          <rect id="Rectangle_14" data-name="Rectangle 14" width="31.318" height="0.891" fill="#fff"/>
        </g>
        <g id="Group_21" data-name="Group 21" transform="translate(18.962)">
          <circle id="Ellipse_7" data-name="Ellipse 7" cx="3.368" cy="3.368" r="3.368" transform="translate(0.446 0.445)" fill="#e8354b"/>
          <path id="Path_30" data-name="Path 30" d="M394.363,159.39a3.813,3.813,0,1,1,3.814-3.814A3.819,3.819,0,0,1,394.363,159.39Zm0-6.735a2.922,2.922,0,1,0,2.923,2.921A2.926,2.926,0,0,0,394.363,152.655Z" transform="translate(-390.55 -151.764)" fill="#fff"/>
        </g>
        <g id="Group_22" data-name="Group 22" transform="translate(2.958 11.567)">
          <circle id="Ellipse_8" data-name="Ellipse 8" cx="3.368" cy="3.368" r="3.368" transform="translate(0.445 0.446)" fill="#e8354b"/>
          <path id="Path_31" data-name="Path 31" d="M380.89,169.126a3.813,3.813,0,1,1,3.814-3.812A3.817,3.817,0,0,1,380.89,169.126Zm0-6.735a2.922,2.922,0,1,0,2.923,2.923A2.925,2.925,0,0,0,380.89,162.391Z" transform="translate(-377.078 -161.5)" fill="#fff"/>
        </g>
        <g id="Group_23" data-name="Group 23" transform="translate(14.741 23.209)">
          <circle id="Ellipse_9" data-name="Ellipse 9" cx="3.368" cy="3.368" r="3.368" transform="translate(0.445 0.446)" fill="#e8354b"/>
          <path id="Path_32" data-name="Path 32" d="M390.811,178.927a3.814,3.814,0,1,1,3.812-3.814A3.818,3.818,0,0,1,390.811,178.927Zm0-6.736a2.923,2.923,0,1,0,2.921,2.923A2.926,2.926,0,0,0,390.811,172.191Z" transform="translate(-386.997 -171.3)" fill="#fff"/>
        </g>
      </g>
    </g>
  </g>
</svg>
